<mxfile host="Electron" modified="2023-09-21T10:55:46.828Z" agent="Mozilla/5.0 (Windows NT 10.0; Win64; x64) AppleWebKit/537.36 (KHTML, like Gecko) draw.io/21.6.5 Chrome/114.0.5735.243 Electron/25.3.1 Safari/537.36" etag="7gbfEmys_6R2ZN0cEwG_" version="21.6.5" type="device">
  <diagram name="第 1 页" id="cwZzLT9g8NPjMhEQ0WUG">
    <mxGraphModel dx="1301" dy="272" grid="1" gridSize="10" guides="1" tooltips="1" connect="1" arrows="1" fold="1" page="1" pageScale="1" pageWidth="827" pageHeight="1169" math="0" shadow="0">
      <root>
        <mxCell id="0" />
        <mxCell id="1" parent="0" />
        <mxCell id="3my1TAARcMDjYpC7J4rx-1" value="" style="whiteSpace=wrap;html=1;aspect=fixed;strokeColor=#000000;fillColor=none;" parent="1" vertex="1">
          <mxGeometry x="80" y="200" width="10" height="10" as="geometry" />
        </mxCell>
        <mxCell id="3my1TAARcMDjYpC7J4rx-2" value="" style="whiteSpace=wrap;html=1;aspect=fixed;fillColor=#d80073;fontColor=#ffffff;strokeColor=#000000;gradientColor=none;labelBackgroundColor=none;glass=0;shadow=0;rounded=0;fillOpacity=25;" parent="1" vertex="1">
          <mxGeometry x="90" y="200" width="10" height="10" as="geometry" />
        </mxCell>
        <mxCell id="3my1TAARcMDjYpC7J4rx-3" value="" style="whiteSpace=wrap;html=1;aspect=fixed;fillColor=#d80073;fontColor=#ffffff;strokeColor=#000000;gradientColor=none;labelBackgroundColor=none;glass=0;shadow=0;rounded=0;fillOpacity=25;" parent="1" vertex="1">
          <mxGeometry x="100" y="200" width="10" height="10" as="geometry" />
        </mxCell>
        <mxCell id="3my1TAARcMDjYpC7J4rx-4" value="" style="whiteSpace=wrap;html=1;aspect=fixed;strokeColor=#000000;fillColor=none;" parent="1" vertex="1">
          <mxGeometry x="110" y="200" width="10" height="10" as="geometry" />
        </mxCell>
        <mxCell id="3my1TAARcMDjYpC7J4rx-6" value="" style="whiteSpace=wrap;html=1;aspect=fixed;fillColor=#d80073;fontColor=#ffffff;strokeColor=#000000;gradientColor=none;labelBackgroundColor=none;glass=0;shadow=0;rounded=0;fillOpacity=25;" parent="1" vertex="1">
          <mxGeometry x="80" y="210" width="10" height="10" as="geometry" />
        </mxCell>
        <mxCell id="3my1TAARcMDjYpC7J4rx-7" value="" style="whiteSpace=wrap;html=1;aspect=fixed;fillColor=#d80073;fontColor=#ffffff;strokeColor=#000000;" parent="1" vertex="1">
          <mxGeometry x="90" y="210" width="10" height="10" as="geometry" />
        </mxCell>
        <mxCell id="3my1TAARcMDjYpC7J4rx-8" value="" style="whiteSpace=wrap;html=1;aspect=fixed;fillColor=#d80073;fontColor=#ffffff;strokeColor=#000000;" parent="1" vertex="1">
          <mxGeometry x="100" y="210" width="10" height="10" as="geometry" />
        </mxCell>
        <mxCell id="3my1TAARcMDjYpC7J4rx-9" value="" style="whiteSpace=wrap;html=1;aspect=fixed;fillColor=#d80073;fontColor=#ffffff;strokeColor=#000000;gradientColor=none;labelBackgroundColor=none;glass=0;shadow=0;rounded=0;fillOpacity=25;" parent="1" vertex="1">
          <mxGeometry x="110" y="210" width="10" height="10" as="geometry" />
        </mxCell>
        <mxCell id="3my1TAARcMDjYpC7J4rx-10" value="" style="whiteSpace=wrap;html=1;aspect=fixed;fillColor=#d80073;fontColor=#ffffff;strokeColor=#000000;gradientColor=none;labelBackgroundColor=none;glass=0;shadow=0;rounded=0;fillOpacity=25;" parent="1" vertex="1">
          <mxGeometry x="80" y="220" width="10" height="10" as="geometry" />
        </mxCell>
        <mxCell id="3my1TAARcMDjYpC7J4rx-11" value="" style="whiteSpace=wrap;html=1;aspect=fixed;fillColor=#d80073;fontColor=#ffffff;strokeColor=#000000;" parent="1" vertex="1">
          <mxGeometry x="90" y="220" width="10" height="10" as="geometry" />
        </mxCell>
        <mxCell id="3my1TAARcMDjYpC7J4rx-12" value="" style="whiteSpace=wrap;html=1;aspect=fixed;fillColor=#d80073;fontColor=#ffffff;strokeColor=#000000;" parent="1" vertex="1">
          <mxGeometry x="100" y="220" width="10" height="10" as="geometry" />
        </mxCell>
        <mxCell id="3my1TAARcMDjYpC7J4rx-13" value="" style="whiteSpace=wrap;html=1;aspect=fixed;fillColor=#d80073;fontColor=#ffffff;strokeColor=#000000;gradientColor=none;labelBackgroundColor=none;glass=0;shadow=0;rounded=0;fillOpacity=25;" parent="1" vertex="1">
          <mxGeometry x="110" y="220" width="10" height="10" as="geometry" />
        </mxCell>
        <mxCell id="3my1TAARcMDjYpC7J4rx-14" value="" style="whiteSpace=wrap;html=1;aspect=fixed;strokeColor=#000000;fillColor=none;" parent="1" vertex="1">
          <mxGeometry x="80" y="230" width="10" height="10" as="geometry" />
        </mxCell>
        <mxCell id="3my1TAARcMDjYpC7J4rx-15" value="" style="whiteSpace=wrap;html=1;aspect=fixed;fillColor=#d80073;fontColor=#ffffff;strokeColor=#000000;gradientColor=none;labelBackgroundColor=none;glass=0;shadow=0;rounded=0;fillOpacity=25;" parent="1" vertex="1">
          <mxGeometry x="90" y="230" width="10" height="10" as="geometry" />
        </mxCell>
        <mxCell id="3my1TAARcMDjYpC7J4rx-16" value="" style="whiteSpace=wrap;html=1;aspect=fixed;fillColor=#d80073;fontColor=#ffffff;strokeColor=#000000;gradientColor=none;labelBackgroundColor=none;glass=0;shadow=0;rounded=0;fillOpacity=25;" parent="1" vertex="1">
          <mxGeometry x="100" y="230" width="10" height="10" as="geometry" />
        </mxCell>
        <mxCell id="3my1TAARcMDjYpC7J4rx-17" value="" style="whiteSpace=wrap;html=1;aspect=fixed;strokeColor=#000000;fillColor=none;" parent="1" vertex="1">
          <mxGeometry x="110" y="230" width="10" height="10" as="geometry" />
        </mxCell>
        <mxCell id="3my1TAARcMDjYpC7J4rx-18" value="" style="whiteSpace=wrap;html=1;aspect=fixed;fillColor=#d80073;fontColor=#ffffff;strokeColor=#000000;" parent="1" vertex="1">
          <mxGeometry y="200" width="10" height="10" as="geometry" />
        </mxCell>
        <mxCell id="3my1TAARcMDjYpC7J4rx-19" value="" style="whiteSpace=wrap;html=1;aspect=fixed;fillColor=#d80073;fontColor=#ffffff;strokeColor=#000000;" parent="1" vertex="1">
          <mxGeometry x="10" y="200" width="10" height="10" as="geometry" />
        </mxCell>
        <mxCell id="3my1TAARcMDjYpC7J4rx-20" value="" style="whiteSpace=wrap;html=1;aspect=fixed;fillColor=#d80073;fontColor=#ffffff;strokeColor=#000000;" parent="1" vertex="1">
          <mxGeometry x="20" y="200" width="10" height="10" as="geometry" />
        </mxCell>
        <mxCell id="3my1TAARcMDjYpC7J4rx-21" value="" style="whiteSpace=wrap;html=1;aspect=fixed;strokeColor=#000000;" parent="1" vertex="1">
          <mxGeometry x="30" y="200" width="10" height="10" as="geometry" />
        </mxCell>
        <mxCell id="3my1TAARcMDjYpC7J4rx-22" value="" style="whiteSpace=wrap;html=1;aspect=fixed;fillColor=#d80073;fontColor=#ffffff;strokeColor=#000000;" parent="1" vertex="1">
          <mxGeometry y="210" width="10" height="10" as="geometry" />
        </mxCell>
        <mxCell id="3my1TAARcMDjYpC7J4rx-23" value="" style="whiteSpace=wrap;html=1;aspect=fixed;fillColor=#d80073;fontColor=#ffffff;strokeColor=#000000;" parent="1" vertex="1">
          <mxGeometry x="10" y="210" width="10" height="10" as="geometry" />
        </mxCell>
        <mxCell id="3my1TAARcMDjYpC7J4rx-24" value="" style="whiteSpace=wrap;html=1;aspect=fixed;strokeColor=#000000;" parent="1" vertex="1">
          <mxGeometry x="20" y="210" width="10" height="10" as="geometry" />
        </mxCell>
        <mxCell id="3my1TAARcMDjYpC7J4rx-25" value="" style="whiteSpace=wrap;html=1;aspect=fixed;strokeColor=#000000;" parent="1" vertex="1">
          <mxGeometry x="30" y="210" width="10" height="10" as="geometry" />
        </mxCell>
        <mxCell id="3my1TAARcMDjYpC7J4rx-26" value="" style="whiteSpace=wrap;html=1;aspect=fixed;fillColor=#d80073;fontColor=#ffffff;strokeColor=#000000;" parent="1" vertex="1">
          <mxGeometry y="220" width="10" height="10" as="geometry" />
        </mxCell>
        <mxCell id="3my1TAARcMDjYpC7J4rx-27" value="" style="whiteSpace=wrap;html=1;aspect=fixed;strokeColor=#000000;fillColor=none;" parent="1" vertex="1">
          <mxGeometry x="10" y="220" width="10" height="10" as="geometry" />
        </mxCell>
        <mxCell id="3my1TAARcMDjYpC7J4rx-28" value="" style="whiteSpace=wrap;html=1;aspect=fixed;strokeColor=#000000;fillColor=none;" parent="1" vertex="1">
          <mxGeometry x="20" y="220" width="10" height="10" as="geometry" />
        </mxCell>
        <mxCell id="3my1TAARcMDjYpC7J4rx-29" value="" style="whiteSpace=wrap;html=1;aspect=fixed;strokeColor=#000000;fillColor=none;" parent="1" vertex="1">
          <mxGeometry x="30" y="220" width="10" height="10" as="geometry" />
        </mxCell>
        <mxCell id="3my1TAARcMDjYpC7J4rx-30" value="" style="whiteSpace=wrap;html=1;aspect=fixed;strokeColor=#000000;fillColor=none;" parent="1" vertex="1">
          <mxGeometry y="230" width="10" height="10" as="geometry" />
        </mxCell>
        <mxCell id="3my1TAARcMDjYpC7J4rx-31" value="" style="whiteSpace=wrap;html=1;aspect=fixed;strokeColor=#000000;fillColor=none;" parent="1" vertex="1">
          <mxGeometry x="10" y="230" width="10" height="10" as="geometry" />
        </mxCell>
        <mxCell id="3my1TAARcMDjYpC7J4rx-32" value="" style="whiteSpace=wrap;html=1;aspect=fixed;strokeColor=#000000;fillColor=none;" parent="1" vertex="1">
          <mxGeometry x="20" y="230" width="10" height="10" as="geometry" />
        </mxCell>
        <mxCell id="3my1TAARcMDjYpC7J4rx-33" value="" style="whiteSpace=wrap;html=1;aspect=fixed;strokeColor=#000000;fillColor=none;" parent="1" vertex="1">
          <mxGeometry x="30" y="230" width="10" height="10" as="geometry" />
        </mxCell>
        <mxCell id="3my1TAARcMDjYpC7J4rx-34" value="" style="whiteSpace=wrap;html=1;aspect=fixed;strokeColor=#000000;fillColor=none;" parent="1" vertex="1">
          <mxGeometry x="-40" y="200" width="10" height="10" as="geometry" />
        </mxCell>
        <mxCell id="3my1TAARcMDjYpC7J4rx-35" value="" style="whiteSpace=wrap;html=1;aspect=fixed;fillColor=#d80073;fontColor=#ffffff;strokeColor=#000000;" parent="1" vertex="1">
          <mxGeometry x="-30" y="200" width="10" height="10" as="geometry" />
        </mxCell>
        <mxCell id="3my1TAARcMDjYpC7J4rx-36" value="" style="whiteSpace=wrap;html=1;aspect=fixed;fillColor=#d80073;fontColor=#ffffff;strokeColor=#000000;" parent="1" vertex="1">
          <mxGeometry x="-20" y="200" width="10" height="10" as="geometry" />
        </mxCell>
        <mxCell id="3my1TAARcMDjYpC7J4rx-37" value="" style="whiteSpace=wrap;html=1;aspect=fixed;fillColor=#d80073;fontColor=#ffffff;strokeColor=#000000;" parent="1" vertex="1">
          <mxGeometry x="-10" y="200" width="10" height="10" as="geometry" />
        </mxCell>
        <mxCell id="3my1TAARcMDjYpC7J4rx-38" value="" style="whiteSpace=wrap;html=1;aspect=fixed;strokeColor=#000000;fillColor=none;" parent="1" vertex="1">
          <mxGeometry x="-40" y="210" width="10" height="10" as="geometry" />
        </mxCell>
        <mxCell id="3my1TAARcMDjYpC7J4rx-39" value="" style="whiteSpace=wrap;html=1;aspect=fixed;strokeColor=#000000;fillColor=none;" parent="1" vertex="1">
          <mxGeometry x="-30" y="210" width="10" height="10" as="geometry" />
        </mxCell>
        <mxCell id="3my1TAARcMDjYpC7J4rx-40" value="" style="whiteSpace=wrap;html=1;aspect=fixed;fillColor=#d80073;fontColor=#ffffff;strokeColor=#000000;" parent="1" vertex="1">
          <mxGeometry x="-20" y="210" width="10" height="10" as="geometry" />
        </mxCell>
        <mxCell id="3my1TAARcMDjYpC7J4rx-41" value="" style="whiteSpace=wrap;html=1;aspect=fixed;fillColor=#d80073;fontColor=#ffffff;strokeColor=#000000;" parent="1" vertex="1">
          <mxGeometry x="-10" y="210" width="10" height="10" as="geometry" />
        </mxCell>
        <mxCell id="3my1TAARcMDjYpC7J4rx-42" value="" style="whiteSpace=wrap;html=1;aspect=fixed;strokeColor=#000000;fillColor=none;" parent="1" vertex="1">
          <mxGeometry x="-40" y="220" width="10" height="10" as="geometry" />
        </mxCell>
        <mxCell id="3my1TAARcMDjYpC7J4rx-43" value="" style="whiteSpace=wrap;html=1;aspect=fixed;strokeColor=#000000;fillColor=none;" parent="1" vertex="1">
          <mxGeometry x="-30" y="220" width="10" height="10" as="geometry" />
        </mxCell>
        <mxCell id="3my1TAARcMDjYpC7J4rx-44" value="" style="whiteSpace=wrap;html=1;aspect=fixed;strokeColor=#000000;fillColor=none;" parent="1" vertex="1">
          <mxGeometry x="-20" y="220" width="10" height="10" as="geometry" />
        </mxCell>
        <mxCell id="3my1TAARcMDjYpC7J4rx-45" value="" style="whiteSpace=wrap;html=1;aspect=fixed;fillColor=#d80073;fontColor=#ffffff;strokeColor=#000000;" parent="1" vertex="1">
          <mxGeometry x="-10" y="220" width="10" height="10" as="geometry" />
        </mxCell>
        <mxCell id="3my1TAARcMDjYpC7J4rx-46" value="" style="whiteSpace=wrap;html=1;aspect=fixed;strokeColor=#000000;fillColor=none;" parent="1" vertex="1">
          <mxGeometry x="-40" y="230" width="10" height="10" as="geometry" />
        </mxCell>
        <mxCell id="3my1TAARcMDjYpC7J4rx-47" value="" style="whiteSpace=wrap;html=1;aspect=fixed;strokeColor=#000000;fillColor=none;" parent="1" vertex="1">
          <mxGeometry x="-30" y="230" width="10" height="10" as="geometry" />
        </mxCell>
        <mxCell id="3my1TAARcMDjYpC7J4rx-48" value="" style="whiteSpace=wrap;html=1;aspect=fixed;strokeColor=#000000;fillColor=none;" parent="1" vertex="1">
          <mxGeometry x="-20" y="230" width="10" height="10" as="geometry" />
        </mxCell>
        <mxCell id="3my1TAARcMDjYpC7J4rx-49" value="" style="whiteSpace=wrap;html=1;aspect=fixed;strokeColor=#000000;fillColor=none;" parent="1" vertex="1">
          <mxGeometry x="-10" y="230" width="10" height="10" as="geometry" />
        </mxCell>
        <mxCell id="3my1TAARcMDjYpC7J4rx-50" value="" style="whiteSpace=wrap;html=1;aspect=fixed;strokeColor=#000000;fillColor=none;" parent="1" vertex="1">
          <mxGeometry y="160" width="10" height="10" as="geometry" />
        </mxCell>
        <mxCell id="3my1TAARcMDjYpC7J4rx-51" value="" style="whiteSpace=wrap;html=1;aspect=fixed;strokeColor=#000000;fillColor=none;" parent="1" vertex="1">
          <mxGeometry x="10" y="160" width="10" height="10" as="geometry" />
        </mxCell>
        <mxCell id="3my1TAARcMDjYpC7J4rx-52" value="" style="whiteSpace=wrap;html=1;aspect=fixed;strokeColor=#000000;fillColor=none;" parent="1" vertex="1">
          <mxGeometry x="20" y="160" width="10" height="10" as="geometry" />
        </mxCell>
        <mxCell id="3my1TAARcMDjYpC7J4rx-53" value="" style="whiteSpace=wrap;html=1;aspect=fixed;strokeColor=#000000;fillColor=none;" parent="1" vertex="1">
          <mxGeometry x="30" y="160" width="10" height="10" as="geometry" />
        </mxCell>
        <mxCell id="3my1TAARcMDjYpC7J4rx-54" value="" style="whiteSpace=wrap;html=1;aspect=fixed;fillColor=#d80073;fontColor=#ffffff;strokeColor=#000000;" parent="1" vertex="1">
          <mxGeometry y="170" width="10" height="10" as="geometry" />
        </mxCell>
        <mxCell id="3my1TAARcMDjYpC7J4rx-55" value="" style="whiteSpace=wrap;html=1;aspect=fixed;strokeColor=#000000;" parent="1" vertex="1">
          <mxGeometry x="10" y="170" width="10" height="10" as="geometry" />
        </mxCell>
        <mxCell id="3my1TAARcMDjYpC7J4rx-56" value="" style="whiteSpace=wrap;html=1;aspect=fixed;strokeColor=#000000;" parent="1" vertex="1">
          <mxGeometry x="20" y="170" width="10" height="10" as="geometry" />
        </mxCell>
        <mxCell id="3my1TAARcMDjYpC7J4rx-57" value="" style="whiteSpace=wrap;html=1;aspect=fixed;strokeColor=#000000;" parent="1" vertex="1">
          <mxGeometry x="30" y="170" width="10" height="10" as="geometry" />
        </mxCell>
        <mxCell id="3my1TAARcMDjYpC7J4rx-58" value="" style="whiteSpace=wrap;html=1;aspect=fixed;fillColor=#d80073;fontColor=#ffffff;strokeColor=#000000;" parent="1" vertex="1">
          <mxGeometry y="180" width="10" height="10" as="geometry" />
        </mxCell>
        <mxCell id="3my1TAARcMDjYpC7J4rx-59" value="" style="whiteSpace=wrap;html=1;aspect=fixed;fillColor=#d80073;fontColor=#ffffff;strokeColor=#000000;" parent="1" vertex="1">
          <mxGeometry x="10" y="180" width="10" height="10" as="geometry" />
        </mxCell>
        <mxCell id="3my1TAARcMDjYpC7J4rx-60" value="" style="whiteSpace=wrap;html=1;aspect=fixed;strokeColor=#000000;" parent="1" vertex="1">
          <mxGeometry x="20" y="180" width="10" height="10" as="geometry" />
        </mxCell>
        <mxCell id="3my1TAARcMDjYpC7J4rx-61" value="" style="whiteSpace=wrap;html=1;aspect=fixed;strokeColor=#000000;" parent="1" vertex="1">
          <mxGeometry x="30" y="180" width="10" height="10" as="geometry" />
        </mxCell>
        <mxCell id="3my1TAARcMDjYpC7J4rx-62" value="" style="whiteSpace=wrap;html=1;aspect=fixed;fillColor=#d80073;fontColor=#ffffff;strokeColor=#000000;" parent="1" vertex="1">
          <mxGeometry y="190" width="10" height="10" as="geometry" />
        </mxCell>
        <mxCell id="3my1TAARcMDjYpC7J4rx-63" value="" style="whiteSpace=wrap;html=1;aspect=fixed;fillColor=#d80073;fontColor=#ffffff;strokeColor=#000000;" parent="1" vertex="1">
          <mxGeometry x="10" y="190" width="10" height="10" as="geometry" />
        </mxCell>
        <mxCell id="3my1TAARcMDjYpC7J4rx-64" value="" style="whiteSpace=wrap;html=1;aspect=fixed;fillColor=#d80073;fontColor=#ffffff;strokeColor=#000000;" parent="1" vertex="1">
          <mxGeometry x="20" y="190" width="10" height="10" as="geometry" />
        </mxCell>
        <mxCell id="3my1TAARcMDjYpC7J4rx-65" value="" style="whiteSpace=wrap;html=1;aspect=fixed;strokeColor=#000000;" parent="1" vertex="1">
          <mxGeometry x="30" y="190" width="10" height="10" as="geometry" />
        </mxCell>
        <mxCell id="3my1TAARcMDjYpC7J4rx-66" value="" style="whiteSpace=wrap;html=1;aspect=fixed;strokeColor=#000000;fillColor=none;" parent="1" vertex="1">
          <mxGeometry x="-40" y="160" width="10" height="10" as="geometry" />
        </mxCell>
        <mxCell id="3my1TAARcMDjYpC7J4rx-67" value="" style="whiteSpace=wrap;html=1;aspect=fixed;strokeColor=#000000;fillColor=none;" parent="1" vertex="1">
          <mxGeometry x="-30" y="160" width="10" height="10" as="geometry" />
        </mxCell>
        <mxCell id="3my1TAARcMDjYpC7J4rx-68" value="" style="whiteSpace=wrap;html=1;aspect=fixed;strokeColor=#000000;fillColor=none;" parent="1" vertex="1">
          <mxGeometry x="-20" y="160" width="10" height="10" as="geometry" />
        </mxCell>
        <mxCell id="3my1TAARcMDjYpC7J4rx-69" value="" style="whiteSpace=wrap;html=1;aspect=fixed;strokeColor=#000000;fillColor=none;" parent="1" vertex="1">
          <mxGeometry x="-10" y="160" width="10" height="10" as="geometry" />
        </mxCell>
        <mxCell id="3my1TAARcMDjYpC7J4rx-70" value="" style="whiteSpace=wrap;html=1;aspect=fixed;strokeColor=#000000;fillColor=none;" parent="1" vertex="1">
          <mxGeometry x="-40" y="170" width="10" height="10" as="geometry" />
        </mxCell>
        <mxCell id="3my1TAARcMDjYpC7J4rx-71" value="" style="whiteSpace=wrap;html=1;aspect=fixed;strokeColor=#000000;fillColor=none;" parent="1" vertex="1">
          <mxGeometry x="-30" y="170" width="10" height="10" as="geometry" />
        </mxCell>
        <mxCell id="3my1TAARcMDjYpC7J4rx-72" value="" style="whiteSpace=wrap;html=1;aspect=fixed;strokeColor=#000000;fillColor=none;" parent="1" vertex="1">
          <mxGeometry x="-20" y="170" width="10" height="10" as="geometry" />
        </mxCell>
        <mxCell id="3my1TAARcMDjYpC7J4rx-73" value="" style="whiteSpace=wrap;html=1;aspect=fixed;fillColor=#d80073;fontColor=#ffffff;strokeColor=#000000;" parent="1" vertex="1">
          <mxGeometry x="-10" y="170" width="10" height="10" as="geometry" />
        </mxCell>
        <mxCell id="3my1TAARcMDjYpC7J4rx-74" value="" style="whiteSpace=wrap;html=1;aspect=fixed;strokeColor=#000000;fillColor=none;" parent="1" vertex="1">
          <mxGeometry x="-40" y="180" width="10" height="10" as="geometry" />
        </mxCell>
        <mxCell id="3my1TAARcMDjYpC7J4rx-75" value="" style="whiteSpace=wrap;html=1;aspect=fixed;strokeColor=#000000;fillColor=none;" parent="1" vertex="1">
          <mxGeometry x="-30" y="180" width="10" height="10" as="geometry" />
        </mxCell>
        <mxCell id="3my1TAARcMDjYpC7J4rx-76" value="" style="whiteSpace=wrap;html=1;aspect=fixed;fillColor=#d80073;fontColor=#ffffff;strokeColor=#000000;" parent="1" vertex="1">
          <mxGeometry x="-20" y="180" width="10" height="10" as="geometry" />
        </mxCell>
        <mxCell id="3my1TAARcMDjYpC7J4rx-77" value="" style="whiteSpace=wrap;html=1;aspect=fixed;fillColor=#d80073;fontColor=#ffffff;strokeColor=#000000;" parent="1" vertex="1">
          <mxGeometry x="-10" y="180" width="10" height="10" as="geometry" />
        </mxCell>
        <mxCell id="3my1TAARcMDjYpC7J4rx-78" value="" style="whiteSpace=wrap;html=1;aspect=fixed;strokeColor=#000000;fillColor=none;" parent="1" vertex="1">
          <mxGeometry x="-40" y="190" width="10" height="10" as="geometry" />
        </mxCell>
        <mxCell id="3my1TAARcMDjYpC7J4rx-79" value="" style="whiteSpace=wrap;html=1;aspect=fixed;fillColor=#d80073;fontColor=#ffffff;strokeColor=#000000;" parent="1" vertex="1">
          <mxGeometry x="-30" y="190" width="10" height="10" as="geometry" />
        </mxCell>
        <mxCell id="3my1TAARcMDjYpC7J4rx-80" value="" style="whiteSpace=wrap;html=1;aspect=fixed;fillColor=#d80073;fontColor=#ffffff;strokeColor=#000000;" parent="1" vertex="1">
          <mxGeometry x="-20" y="190" width="10" height="10" as="geometry" />
        </mxCell>
        <mxCell id="3my1TAARcMDjYpC7J4rx-81" value="" style="whiteSpace=wrap;html=1;aspect=fixed;fillColor=#d80073;fontColor=#ffffff;strokeColor=#000000;" parent="1" vertex="1">
          <mxGeometry x="-10" y="190" width="10" height="10" as="geometry" />
        </mxCell>
        <mxCell id="3my1TAARcMDjYpC7J4rx-82" value="" style="whiteSpace=wrap;html=1;aspect=fixed;fillColor=#d80073;strokeOpacity=100;fillOpacity=37;" parent="1" vertex="1">
          <mxGeometry x="160" y="220" width="10" height="10" as="geometry" />
        </mxCell>
        <mxCell id="3my1TAARcMDjYpC7J4rx-83" value="" style="whiteSpace=wrap;html=1;aspect=fixed;fillColor=#d80073;strokeOpacity=100;fillOpacity=37;" parent="1" vertex="1">
          <mxGeometry x="170" y="220" width="10" height="10" as="geometry" />
        </mxCell>
        <mxCell id="3my1TAARcMDjYpC7J4rx-84" value="" style="whiteSpace=wrap;html=1;aspect=fixed;fillColor=#d80073;strokeOpacity=100;fillOpacity=37;" parent="1" vertex="1">
          <mxGeometry x="160" y="230" width="10" height="10" as="geometry" />
        </mxCell>
        <mxCell id="3my1TAARcMDjYpC7J4rx-85" value="" style="whiteSpace=wrap;html=1;aspect=fixed;fillColor=#d80073;strokeOpacity=100;fillOpacity=37;" parent="1" vertex="1">
          <mxGeometry x="170" y="230" width="10" height="10" as="geometry" />
        </mxCell>
        <mxCell id="3my1TAARcMDjYpC7J4rx-86" value="" style="whiteSpace=wrap;html=1;aspect=fixed;fillColor=#d80073;fillOpacity=37;" parent="1" vertex="1">
          <mxGeometry x="220" y="230" width="10" height="10" as="geometry" />
        </mxCell>
        <mxCell id="3my1TAARcMDjYpC7J4rx-88" value="" style="whiteSpace=wrap;html=1;aspect=fixed;fillColor=#1ba1e2;fillOpacity=25;" parent="1" vertex="1">
          <mxGeometry x="80" y="320" width="10" height="10" as="geometry" />
        </mxCell>
        <mxCell id="3my1TAARcMDjYpC7J4rx-89" value="" style="whiteSpace=wrap;html=1;aspect=fixed;fillColor=#1ba1e2;fillOpacity=25;" parent="1" vertex="1">
          <mxGeometry x="90" y="320" width="10" height="10" as="geometry" />
        </mxCell>
        <mxCell id="3my1TAARcMDjYpC7J4rx-90" value="" style="whiteSpace=wrap;html=1;aspect=fixed;fillColor=#1ba1e2;fillOpacity=25;" parent="1" vertex="1">
          <mxGeometry x="100" y="320" width="10" height="10" as="geometry" />
        </mxCell>
        <mxCell id="3my1TAARcMDjYpC7J4rx-91" value="" style="whiteSpace=wrap;html=1;aspect=fixed;fillColor=#1ba1e2;fillOpacity=25;" parent="1" vertex="1">
          <mxGeometry x="110" y="320" width="10" height="10" as="geometry" />
        </mxCell>
        <mxCell id="3my1TAARcMDjYpC7J4rx-92" value="" style="whiteSpace=wrap;html=1;aspect=fixed;fillColor=#1ba1e2;fillOpacity=25;" parent="1" vertex="1">
          <mxGeometry x="80" y="330" width="10" height="10" as="geometry" />
        </mxCell>
        <mxCell id="3my1TAARcMDjYpC7J4rx-93" value="" style="whiteSpace=wrap;html=1;aspect=fixed;fillColor=#1ba1e2;" parent="1" vertex="1">
          <mxGeometry x="90" y="330" width="10" height="10" as="geometry" />
        </mxCell>
        <mxCell id="3my1TAARcMDjYpC7J4rx-94" value="" style="whiteSpace=wrap;html=1;aspect=fixed;fillColor=#1ba1e2;" parent="1" vertex="1">
          <mxGeometry x="100" y="330" width="10" height="10" as="geometry" />
        </mxCell>
        <mxCell id="3my1TAARcMDjYpC7J4rx-95" value="" style="whiteSpace=wrap;html=1;aspect=fixed;fillColor=#1ba1e2;fillOpacity=25;" parent="1" vertex="1">
          <mxGeometry x="110" y="330" width="10" height="10" as="geometry" />
        </mxCell>
        <mxCell id="3my1TAARcMDjYpC7J4rx-96" value="" style="whiteSpace=wrap;html=1;aspect=fixed;fillColor=#1ba1e2;fillOpacity=25;" parent="1" vertex="1">
          <mxGeometry x="80" y="340" width="10" height="10" as="geometry" />
        </mxCell>
        <mxCell id="3my1TAARcMDjYpC7J4rx-97" value="" style="whiteSpace=wrap;html=1;aspect=fixed;fillColor=#1ba1e2;" parent="1" vertex="1">
          <mxGeometry x="90" y="340" width="10" height="10" as="geometry" />
        </mxCell>
        <mxCell id="3my1TAARcMDjYpC7J4rx-98" value="" style="whiteSpace=wrap;html=1;aspect=fixed;fillColor=#1ba1e2;" parent="1" vertex="1">
          <mxGeometry x="100" y="340" width="10" height="10" as="geometry" />
        </mxCell>
        <mxCell id="3my1TAARcMDjYpC7J4rx-99" value="" style="whiteSpace=wrap;html=1;aspect=fixed;fillColor=#1ba1e2;fillOpacity=25;" parent="1" vertex="1">
          <mxGeometry x="110" y="340" width="10" height="10" as="geometry" />
        </mxCell>
        <mxCell id="3my1TAARcMDjYpC7J4rx-100" value="" style="whiteSpace=wrap;html=1;aspect=fixed;fillColor=#1ba1e2;fillOpacity=25;" parent="1" vertex="1">
          <mxGeometry x="80" y="350" width="10" height="10" as="geometry" />
        </mxCell>
        <mxCell id="3my1TAARcMDjYpC7J4rx-101" value="" style="whiteSpace=wrap;html=1;aspect=fixed;fillColor=#1ba1e2;fillOpacity=25;" parent="1" vertex="1">
          <mxGeometry x="90" y="350" width="10" height="10" as="geometry" />
        </mxCell>
        <mxCell id="3my1TAARcMDjYpC7J4rx-102" value="" style="whiteSpace=wrap;html=1;aspect=fixed;fillColor=#1ba1e2;fillOpacity=25;" parent="1" vertex="1">
          <mxGeometry x="100" y="350" width="10" height="10" as="geometry" />
        </mxCell>
        <mxCell id="3my1TAARcMDjYpC7J4rx-103" value="" style="whiteSpace=wrap;html=1;aspect=fixed;fillColor=#1ba1e2;fillOpacity=25;" parent="1" vertex="1">
          <mxGeometry x="110" y="350" width="10" height="10" as="geometry" />
        </mxCell>
        <mxCell id="3my1TAARcMDjYpC7J4rx-104" value="" style="whiteSpace=wrap;html=1;aspect=fixed;fillColor=#1ba1e2;fontColor=#ffffff;strokeColor=#000000;" parent="1" vertex="1">
          <mxGeometry y="320" width="10" height="10" as="geometry" />
        </mxCell>
        <mxCell id="3my1TAARcMDjYpC7J4rx-105" value="" style="whiteSpace=wrap;html=1;aspect=fixed;fillColor=#1ba1e2;fontColor=#ffffff;strokeColor=#000000;" parent="1" vertex="1">
          <mxGeometry x="10" y="320" width="10" height="10" as="geometry" />
        </mxCell>
        <mxCell id="3my1TAARcMDjYpC7J4rx-106" value="" style="whiteSpace=wrap;html=1;aspect=fixed;fillColor=none;" parent="1" vertex="1">
          <mxGeometry x="20" y="320" width="10" height="10" as="geometry" />
        </mxCell>
        <mxCell id="3my1TAARcMDjYpC7J4rx-107" value="" style="whiteSpace=wrap;html=1;aspect=fixed;fillColor=none;" parent="1" vertex="1">
          <mxGeometry x="30" y="320" width="10" height="10" as="geometry" />
        </mxCell>
        <mxCell id="3my1TAARcMDjYpC7J4rx-108" value="" style="whiteSpace=wrap;html=1;aspect=fixed;fillColor=#1ba1e2;fontColor=#ffffff;strokeColor=#000000;" parent="1" vertex="1">
          <mxGeometry y="330" width="10" height="10" as="geometry" />
        </mxCell>
        <mxCell id="3my1TAARcMDjYpC7J4rx-109" value="" style="whiteSpace=wrap;html=1;aspect=fixed;fillColor=#1ba1e2;fontColor=#ffffff;strokeColor=#000000;" parent="1" vertex="1">
          <mxGeometry x="10" y="330" width="10" height="10" as="geometry" />
        </mxCell>
        <mxCell id="3my1TAARcMDjYpC7J4rx-110" value="" style="whiteSpace=wrap;html=1;aspect=fixed;fillColor=#1ba1e2;fontColor=#ffffff;strokeColor=#000000;" parent="1" vertex="1">
          <mxGeometry x="20" y="330" width="10" height="10" as="geometry" />
        </mxCell>
        <mxCell id="3my1TAARcMDjYpC7J4rx-111" value="" style="whiteSpace=wrap;html=1;aspect=fixed;fillColor=none;" parent="1" vertex="1">
          <mxGeometry x="30" y="330" width="10" height="10" as="geometry" />
        </mxCell>
        <mxCell id="3my1TAARcMDjYpC7J4rx-112" value="" style="whiteSpace=wrap;html=1;aspect=fixed;fillColor=none;" parent="1" vertex="1">
          <mxGeometry y="340" width="10" height="10" as="geometry" />
        </mxCell>
        <mxCell id="3my1TAARcMDjYpC7J4rx-113" value="" style="whiteSpace=wrap;html=1;aspect=fixed;fillColor=#1ba1e2;fontColor=#ffffff;strokeColor=#000000;" parent="1" vertex="1">
          <mxGeometry x="10" y="340" width="10" height="10" as="geometry" />
        </mxCell>
        <mxCell id="3my1TAARcMDjYpC7J4rx-114" value="" style="whiteSpace=wrap;html=1;aspect=fixed;fillColor=#1ba1e2;fontColor=#ffffff;strokeColor=#000000;" parent="1" vertex="1">
          <mxGeometry x="20" y="340" width="10" height="10" as="geometry" />
        </mxCell>
        <mxCell id="3my1TAARcMDjYpC7J4rx-115" value="" style="whiteSpace=wrap;html=1;aspect=fixed;fillColor=none;" parent="1" vertex="1">
          <mxGeometry x="30" y="340" width="10" height="10" as="geometry" />
        </mxCell>
        <mxCell id="3my1TAARcMDjYpC7J4rx-116" value="" style="whiteSpace=wrap;html=1;aspect=fixed;fillColor=none;" parent="1" vertex="1">
          <mxGeometry y="350" width="10" height="10" as="geometry" />
        </mxCell>
        <mxCell id="3my1TAARcMDjYpC7J4rx-117" value="" style="whiteSpace=wrap;html=1;aspect=fixed;fillColor=none;" parent="1" vertex="1">
          <mxGeometry x="10" y="350" width="10" height="10" as="geometry" />
        </mxCell>
        <mxCell id="3my1TAARcMDjYpC7J4rx-118" value="" style="whiteSpace=wrap;html=1;aspect=fixed;fillColor=none;" parent="1" vertex="1">
          <mxGeometry x="20" y="350" width="10" height="10" as="geometry" />
        </mxCell>
        <mxCell id="3my1TAARcMDjYpC7J4rx-119" value="" style="whiteSpace=wrap;html=1;aspect=fixed;fillColor=none;" parent="1" vertex="1">
          <mxGeometry x="30" y="350" width="10" height="10" as="geometry" />
        </mxCell>
        <mxCell id="3my1TAARcMDjYpC7J4rx-120" value="" style="whiteSpace=wrap;html=1;aspect=fixed;fillColor=none;" parent="1" vertex="1">
          <mxGeometry x="-40" y="320" width="10" height="10" as="geometry" />
        </mxCell>
        <mxCell id="3my1TAARcMDjYpC7J4rx-121" value="" style="whiteSpace=wrap;html=1;aspect=fixed;fillColor=none;" parent="1" vertex="1">
          <mxGeometry x="-30" y="320" width="10" height="10" as="geometry" />
        </mxCell>
        <mxCell id="3my1TAARcMDjYpC7J4rx-122" value="" style="whiteSpace=wrap;html=1;aspect=fixed;fillColor=#1ba1e2;fontColor=#ffffff;strokeColor=#000000;" parent="1" vertex="1">
          <mxGeometry x="-20" y="320" width="10" height="10" as="geometry" />
        </mxCell>
        <mxCell id="3my1TAARcMDjYpC7J4rx-123" value="" style="whiteSpace=wrap;html=1;aspect=fixed;fillColor=#1ba1e2;fontColor=#ffffff;strokeColor=#000000;" parent="1" vertex="1">
          <mxGeometry x="-10" y="320" width="10" height="10" as="geometry" />
        </mxCell>
        <mxCell id="3my1TAARcMDjYpC7J4rx-124" value="" style="whiteSpace=wrap;html=1;aspect=fixed;fillColor=none;" parent="1" vertex="1">
          <mxGeometry x="-40" y="330" width="10" height="10" as="geometry" />
        </mxCell>
        <mxCell id="3my1TAARcMDjYpC7J4rx-125" value="" style="whiteSpace=wrap;html=1;aspect=fixed;fillColor=#1ba1e2;fontColor=#ffffff;strokeColor=#000000;" parent="1" vertex="1">
          <mxGeometry x="-30" y="330" width="10" height="10" as="geometry" />
        </mxCell>
        <mxCell id="3my1TAARcMDjYpC7J4rx-126" value="" style="whiteSpace=wrap;html=1;aspect=fixed;fillColor=#1ba1e2;fontColor=#ffffff;strokeColor=#000000;" parent="1" vertex="1">
          <mxGeometry x="-20" y="330" width="10" height="10" as="geometry" />
        </mxCell>
        <mxCell id="3my1TAARcMDjYpC7J4rx-127" value="" style="whiteSpace=wrap;html=1;aspect=fixed;fillColor=#1ba1e2;fontColor=#ffffff;strokeColor=#000000;" parent="1" vertex="1">
          <mxGeometry x="-10" y="330" width="10" height="10" as="geometry" />
        </mxCell>
        <mxCell id="3my1TAARcMDjYpC7J4rx-128" value="" style="whiteSpace=wrap;html=1;aspect=fixed;fillColor=none;" parent="1" vertex="1">
          <mxGeometry x="-40" y="340" width="10" height="10" as="geometry" />
        </mxCell>
        <mxCell id="3my1TAARcMDjYpC7J4rx-129" value="" style="whiteSpace=wrap;html=1;aspect=fixed;fillColor=#1ba1e2;fontColor=#ffffff;strokeColor=#000000;" parent="1" vertex="1">
          <mxGeometry x="-30" y="340" width="10" height="10" as="geometry" />
        </mxCell>
        <mxCell id="3my1TAARcMDjYpC7J4rx-130" value="" style="whiteSpace=wrap;html=1;aspect=fixed;fillColor=#1ba1e2;fontColor=#ffffff;strokeColor=#000000;" parent="1" vertex="1">
          <mxGeometry x="-20" y="340" width="10" height="10" as="geometry" />
        </mxCell>
        <mxCell id="3my1TAARcMDjYpC7J4rx-131" value="" style="whiteSpace=wrap;html=1;aspect=fixed;fillColor=none;" parent="1" vertex="1">
          <mxGeometry x="-10" y="340" width="10" height="10" as="geometry" />
        </mxCell>
        <mxCell id="3my1TAARcMDjYpC7J4rx-132" value="" style="whiteSpace=wrap;html=1;aspect=fixed;fillColor=none;" parent="1" vertex="1">
          <mxGeometry x="-40" y="350" width="10" height="10" as="geometry" />
        </mxCell>
        <mxCell id="3my1TAARcMDjYpC7J4rx-133" value="" style="whiteSpace=wrap;html=1;aspect=fixed;fillColor=none;" parent="1" vertex="1">
          <mxGeometry x="-30" y="350" width="10" height="10" as="geometry" />
        </mxCell>
        <mxCell id="3my1TAARcMDjYpC7J4rx-134" value="" style="whiteSpace=wrap;html=1;aspect=fixed;fillColor=none;" parent="1" vertex="1">
          <mxGeometry x="-20" y="350" width="10" height="10" as="geometry" />
        </mxCell>
        <mxCell id="3my1TAARcMDjYpC7J4rx-135" value="" style="whiteSpace=wrap;html=1;aspect=fixed;fillColor=none;" parent="1" vertex="1">
          <mxGeometry x="-10" y="350" width="10" height="10" as="geometry" />
        </mxCell>
        <mxCell id="3my1TAARcMDjYpC7J4rx-136" value="" style="whiteSpace=wrap;html=1;aspect=fixed;fillColor=none;" parent="1" vertex="1">
          <mxGeometry y="280" width="10" height="10" as="geometry" />
        </mxCell>
        <mxCell id="3my1TAARcMDjYpC7J4rx-137" value="" style="whiteSpace=wrap;html=1;aspect=fixed;fillColor=none;" parent="1" vertex="1">
          <mxGeometry x="10" y="280" width="10" height="10" as="geometry" />
        </mxCell>
        <mxCell id="3my1TAARcMDjYpC7J4rx-138" value="" style="whiteSpace=wrap;html=1;aspect=fixed;fillColor=none;" parent="1" vertex="1">
          <mxGeometry x="20" y="280" width="10" height="10" as="geometry" />
        </mxCell>
        <mxCell id="3my1TAARcMDjYpC7J4rx-139" value="" style="whiteSpace=wrap;html=1;aspect=fixed;fillColor=none;" parent="1" vertex="1">
          <mxGeometry x="30" y="280" width="10" height="10" as="geometry" />
        </mxCell>
        <mxCell id="3my1TAARcMDjYpC7J4rx-140" value="" style="whiteSpace=wrap;html=1;aspect=fixed;fillColor=none;" parent="1" vertex="1">
          <mxGeometry y="290" width="10" height="10" as="geometry" />
        </mxCell>
        <mxCell id="3my1TAARcMDjYpC7J4rx-141" value="" style="whiteSpace=wrap;html=1;aspect=fixed;fillColor=#1ba1e2;fontColor=#ffffff;strokeColor=#000000;" parent="1" vertex="1">
          <mxGeometry x="10" y="290" width="10" height="10" as="geometry" />
        </mxCell>
        <mxCell id="3my1TAARcMDjYpC7J4rx-142" value="" style="whiteSpace=wrap;html=1;aspect=fixed;fillColor=#1ba1e2;fontColor=#ffffff;strokeColor=#000000;" parent="1" vertex="1">
          <mxGeometry x="20" y="290" width="10" height="10" as="geometry" />
        </mxCell>
        <mxCell id="3my1TAARcMDjYpC7J4rx-143" value="" style="whiteSpace=wrap;html=1;aspect=fixed;fillColor=none;" parent="1" vertex="1">
          <mxGeometry x="30" y="290" width="10" height="10" as="geometry" />
        </mxCell>
        <mxCell id="3my1TAARcMDjYpC7J4rx-144" value="" style="whiteSpace=wrap;html=1;aspect=fixed;fillColor=#1ba1e2;fontColor=#ffffff;strokeColor=#000000;" parent="1" vertex="1">
          <mxGeometry y="300" width="10" height="10" as="geometry" />
        </mxCell>
        <mxCell id="3my1TAARcMDjYpC7J4rx-145" value="" style="whiteSpace=wrap;html=1;aspect=fixed;fillColor=#1ba1e2;fontColor=#ffffff;strokeColor=#000000;" parent="1" vertex="1">
          <mxGeometry x="10" y="300" width="10" height="10" as="geometry" />
        </mxCell>
        <mxCell id="3my1TAARcMDjYpC7J4rx-146" value="" style="whiteSpace=wrap;html=1;aspect=fixed;fillColor=#1ba1e2;fontColor=#ffffff;strokeColor=#000000;" parent="1" vertex="1">
          <mxGeometry x="20" y="300" width="10" height="10" as="geometry" />
        </mxCell>
        <mxCell id="3my1TAARcMDjYpC7J4rx-147" value="" style="whiteSpace=wrap;html=1;aspect=fixed;fillColor=none;" parent="1" vertex="1">
          <mxGeometry x="30" y="300" width="10" height="10" as="geometry" />
        </mxCell>
        <mxCell id="3my1TAARcMDjYpC7J4rx-148" value="" style="whiteSpace=wrap;html=1;aspect=fixed;fillColor=#1ba1e2;fontColor=#ffffff;strokeColor=#000000;" parent="1" vertex="1">
          <mxGeometry y="310" width="10" height="10" as="geometry" />
        </mxCell>
        <mxCell id="3my1TAARcMDjYpC7J4rx-149" value="" style="whiteSpace=wrap;html=1;aspect=fixed;fillColor=#1ba1e2;fontColor=#ffffff;strokeColor=#000000;" parent="1" vertex="1">
          <mxGeometry x="10" y="310" width="10" height="10" as="geometry" />
        </mxCell>
        <mxCell id="3my1TAARcMDjYpC7J4rx-150" value="" style="whiteSpace=wrap;html=1;aspect=fixed;fillColor=none;" parent="1" vertex="1">
          <mxGeometry x="20" y="310" width="10" height="10" as="geometry" />
        </mxCell>
        <mxCell id="3my1TAARcMDjYpC7J4rx-151" value="" style="whiteSpace=wrap;html=1;aspect=fixed;fillColor=none;" parent="1" vertex="1">
          <mxGeometry x="30" y="310" width="10" height="10" as="geometry" />
        </mxCell>
        <mxCell id="3my1TAARcMDjYpC7J4rx-152" value="" style="whiteSpace=wrap;html=1;aspect=fixed;fillColor=none;" parent="1" vertex="1">
          <mxGeometry x="-40" y="280" width="10" height="10" as="geometry" />
        </mxCell>
        <mxCell id="3my1TAARcMDjYpC7J4rx-153" value="" style="whiteSpace=wrap;html=1;aspect=fixed;fillColor=none;" parent="1" vertex="1">
          <mxGeometry x="-30" y="280" width="10" height="10" as="geometry" />
        </mxCell>
        <mxCell id="3my1TAARcMDjYpC7J4rx-154" value="" style="whiteSpace=wrap;html=1;aspect=fixed;fillColor=none;" parent="1" vertex="1">
          <mxGeometry x="-20" y="280" width="10" height="10" as="geometry" />
        </mxCell>
        <mxCell id="3my1TAARcMDjYpC7J4rx-155" value="" style="whiteSpace=wrap;html=1;aspect=fixed;fillColor=none;" parent="1" vertex="1">
          <mxGeometry x="-10" y="280" width="10" height="10" as="geometry" />
        </mxCell>
        <mxCell id="3my1TAARcMDjYpC7J4rx-156" value="" style="whiteSpace=wrap;html=1;aspect=fixed;fillColor=none;" parent="1" vertex="1">
          <mxGeometry x="-40" y="290" width="10" height="10" as="geometry" />
        </mxCell>
        <mxCell id="3my1TAARcMDjYpC7J4rx-157" value="" style="whiteSpace=wrap;html=1;aspect=fixed;fillColor=#1ba1e2;fontColor=#ffffff;strokeColor=#000000;" parent="1" vertex="1">
          <mxGeometry x="-30" y="290" width="10" height="10" as="geometry" />
        </mxCell>
        <mxCell id="3my1TAARcMDjYpC7J4rx-158" value="" style="whiteSpace=wrap;html=1;aspect=fixed;fillColor=#1ba1e2;fontColor=#ffffff;strokeColor=#000000;" parent="1" vertex="1">
          <mxGeometry x="-20" y="290" width="10" height="10" as="geometry" />
        </mxCell>
        <mxCell id="3my1TAARcMDjYpC7J4rx-159" value="" style="whiteSpace=wrap;html=1;aspect=fixed;fillColor=none;" parent="1" vertex="1">
          <mxGeometry x="-10" y="290" width="10" height="10" as="geometry" />
        </mxCell>
        <mxCell id="3my1TAARcMDjYpC7J4rx-160" value="" style="whiteSpace=wrap;html=1;aspect=fixed;fillColor=none;" parent="1" vertex="1">
          <mxGeometry x="-40" y="300" width="10" height="10" as="geometry" />
        </mxCell>
        <mxCell id="3my1TAARcMDjYpC7J4rx-161" value="" style="whiteSpace=wrap;html=1;aspect=fixed;fillColor=#1ba1e2;fontColor=#ffffff;strokeColor=#000000;" parent="1" vertex="1">
          <mxGeometry x="-30" y="300" width="10" height="10" as="geometry" />
        </mxCell>
        <mxCell id="3my1TAARcMDjYpC7J4rx-162" value="" style="whiteSpace=wrap;html=1;aspect=fixed;fillColor=#1ba1e2;fontColor=#ffffff;strokeColor=#000000;" parent="1" vertex="1">
          <mxGeometry x="-20" y="300" width="10" height="10" as="geometry" />
        </mxCell>
        <mxCell id="3my1TAARcMDjYpC7J4rx-163" value="" style="whiteSpace=wrap;html=1;aspect=fixed;fillColor=#1ba1e2;fontColor=#ffffff;strokeColor=#000000;" parent="1" vertex="1">
          <mxGeometry x="-10" y="300" width="10" height="10" as="geometry" />
        </mxCell>
        <mxCell id="3my1TAARcMDjYpC7J4rx-164" value="" style="whiteSpace=wrap;html=1;aspect=fixed;fillColor=none;" parent="1" vertex="1">
          <mxGeometry x="-40" y="310" width="10" height="10" as="geometry" />
        </mxCell>
        <mxCell id="3my1TAARcMDjYpC7J4rx-165" value="" style="whiteSpace=wrap;html=1;aspect=fixed;fillColor=none;" parent="1" vertex="1">
          <mxGeometry x="-30" y="310" width="10" height="10" as="geometry" />
        </mxCell>
        <mxCell id="3my1TAARcMDjYpC7J4rx-166" value="" style="whiteSpace=wrap;html=1;aspect=fixed;fillColor=#1ba1e2;fontColor=#ffffff;strokeColor=#000000;" parent="1" vertex="1">
          <mxGeometry x="-20" y="310" width="10" height="10" as="geometry" />
        </mxCell>
        <mxCell id="3my1TAARcMDjYpC7J4rx-167" value="" style="whiteSpace=wrap;html=1;aspect=fixed;fillColor=#1ba1e2;fontColor=#ffffff;strokeColor=#000000;" parent="1" vertex="1">
          <mxGeometry x="-10" y="310" width="10" height="10" as="geometry" />
        </mxCell>
        <mxCell id="3my1TAARcMDjYpC7J4rx-168" value="" style="whiteSpace=wrap;html=1;aspect=fixed;fillColor=#1ba1e2;fillOpacity=43;" parent="1" vertex="1">
          <mxGeometry x="160" y="340" width="10" height="10" as="geometry" />
        </mxCell>
        <mxCell id="3my1TAARcMDjYpC7J4rx-169" value="" style="whiteSpace=wrap;html=1;aspect=fixed;fillColor=#1ba1e2;fillOpacity=43;" parent="1" vertex="1">
          <mxGeometry x="170" y="340" width="10" height="10" as="geometry" />
        </mxCell>
        <mxCell id="3my1TAARcMDjYpC7J4rx-170" value="" style="whiteSpace=wrap;html=1;aspect=fixed;fillColor=#1ba1e2;fillOpacity=43;" parent="1" vertex="1">
          <mxGeometry x="160" y="350" width="10" height="10" as="geometry" />
        </mxCell>
        <mxCell id="3my1TAARcMDjYpC7J4rx-171" value="" style="whiteSpace=wrap;html=1;aspect=fixed;fillColor=#1ba1e2;fillOpacity=43;" parent="1" vertex="1">
          <mxGeometry x="170" y="350" width="10" height="10" as="geometry" />
        </mxCell>
        <mxCell id="3my1TAARcMDjYpC7J4rx-173" value="" style="whiteSpace=wrap;html=1;aspect=fixed;fillColor=#fa6800;" parent="1" vertex="1">
          <mxGeometry x="80" y="440" width="10" height="10" as="geometry" />
        </mxCell>
        <mxCell id="3my1TAARcMDjYpC7J4rx-174" value="" style="whiteSpace=wrap;html=1;aspect=fixed;fillColor=#fa6800;strokeOpacity=100;fillOpacity=25;" parent="1" vertex="1">
          <mxGeometry x="90" y="440" width="10" height="10" as="geometry" />
        </mxCell>
        <mxCell id="3my1TAARcMDjYpC7J4rx-175" value="" style="whiteSpace=wrap;html=1;aspect=fixed;fillColor=none;" parent="1" vertex="1">
          <mxGeometry x="100" y="440" width="10" height="10" as="geometry" />
        </mxCell>
        <mxCell id="3my1TAARcMDjYpC7J4rx-176" value="" style="whiteSpace=wrap;html=1;aspect=fixed;fillColor=none;" parent="1" vertex="1">
          <mxGeometry x="110" y="440" width="10" height="10" as="geometry" />
        </mxCell>
        <mxCell id="3my1TAARcMDjYpC7J4rx-177" value="" style="whiteSpace=wrap;html=1;aspect=fixed;fillColor=#fa6800;strokeOpacity=100;fillOpacity=25;" parent="1" vertex="1">
          <mxGeometry x="80" y="450" width="10" height="10" as="geometry" />
        </mxCell>
        <mxCell id="3my1TAARcMDjYpC7J4rx-178" value="" style="whiteSpace=wrap;html=1;aspect=fixed;fillColor=#fa6800;" parent="1" vertex="1">
          <mxGeometry x="90" y="450" width="10" height="10" as="geometry" />
        </mxCell>
        <mxCell id="3my1TAARcMDjYpC7J4rx-179" value="" style="whiteSpace=wrap;html=1;aspect=fixed;fillColor=#fa6800;strokeOpacity=100;fillOpacity=25;" parent="1" vertex="1">
          <mxGeometry x="100" y="450" width="10" height="10" as="geometry" />
        </mxCell>
        <mxCell id="3my1TAARcMDjYpC7J4rx-180" value="" style="whiteSpace=wrap;html=1;aspect=fixed;fillColor=none;" parent="1" vertex="1">
          <mxGeometry x="110" y="450" width="10" height="10" as="geometry" />
        </mxCell>
        <mxCell id="3my1TAARcMDjYpC7J4rx-181" value="" style="whiteSpace=wrap;html=1;aspect=fixed;fillColor=none;" parent="1" vertex="1">
          <mxGeometry x="80" y="460" width="10" height="10" as="geometry" />
        </mxCell>
        <mxCell id="3my1TAARcMDjYpC7J4rx-182" value="" style="whiteSpace=wrap;html=1;aspect=fixed;fillColor=#fa6800;strokeOpacity=100;fillOpacity=25;" parent="1" vertex="1">
          <mxGeometry x="90" y="460" width="10" height="10" as="geometry" />
        </mxCell>
        <mxCell id="3my1TAARcMDjYpC7J4rx-183" value="" style="whiteSpace=wrap;html=1;aspect=fixed;fillColor=#fa6800;" parent="1" vertex="1">
          <mxGeometry x="100" y="460" width="10" height="10" as="geometry" />
        </mxCell>
        <mxCell id="3my1TAARcMDjYpC7J4rx-184" value="" style="whiteSpace=wrap;html=1;aspect=fixed;fillColor=#fa6800;strokeOpacity=100;fillOpacity=25;" parent="1" vertex="1">
          <mxGeometry x="110" y="460" width="10" height="10" as="geometry" />
        </mxCell>
        <mxCell id="3my1TAARcMDjYpC7J4rx-185" value="" style="whiteSpace=wrap;html=1;aspect=fixed;fillColor=none;" parent="1" vertex="1">
          <mxGeometry x="80" y="470" width="10" height="10" as="geometry" />
        </mxCell>
        <mxCell id="3my1TAARcMDjYpC7J4rx-186" value="" style="whiteSpace=wrap;html=1;aspect=fixed;fillColor=none;" parent="1" vertex="1">
          <mxGeometry x="90" y="470" width="10" height="10" as="geometry" />
        </mxCell>
        <mxCell id="3my1TAARcMDjYpC7J4rx-187" value="" style="whiteSpace=wrap;html=1;aspect=fixed;fillColor=#fa6800;strokeOpacity=100;fillOpacity=25;" parent="1" vertex="1">
          <mxGeometry x="100" y="470" width="10" height="10" as="geometry" />
        </mxCell>
        <mxCell id="3my1TAARcMDjYpC7J4rx-188" value="" style="whiteSpace=wrap;html=1;aspect=fixed;fillColor=#fa6800;" parent="1" vertex="1">
          <mxGeometry x="110" y="470" width="10" height="10" as="geometry" />
        </mxCell>
        <mxCell id="3my1TAARcMDjYpC7J4rx-189" value="" style="whiteSpace=wrap;html=1;aspect=fixed;fillColor=#fa6800;fontColor=#000000;strokeColor=#000000;" parent="1" vertex="1">
          <mxGeometry y="440" width="10" height="10" as="geometry" />
        </mxCell>
        <mxCell id="3my1TAARcMDjYpC7J4rx-190" value="" style="whiteSpace=wrap;html=1;aspect=fixed;fillColor=#fa6800;fontColor=#000000;strokeColor=#000000;" parent="1" vertex="1">
          <mxGeometry x="10" y="440" width="10" height="10" as="geometry" />
        </mxCell>
        <mxCell id="3my1TAARcMDjYpC7J4rx-191" value="" style="whiteSpace=wrap;html=1;aspect=fixed;strokeColor=#000000;fillColor=none;" parent="1" vertex="1">
          <mxGeometry x="20" y="440" width="10" height="10" as="geometry" />
        </mxCell>
        <mxCell id="3my1TAARcMDjYpC7J4rx-192" value="" style="whiteSpace=wrap;html=1;aspect=fixed;strokeColor=#000000;fillColor=none;" parent="1" vertex="1">
          <mxGeometry x="30" y="440" width="10" height="10" as="geometry" />
        </mxCell>
        <mxCell id="3my1TAARcMDjYpC7J4rx-193" value="" style="whiteSpace=wrap;html=1;aspect=fixed;fillColor=#fa6800;fontColor=#000000;strokeColor=#000000;" parent="1" vertex="1">
          <mxGeometry y="450" width="10" height="10" as="geometry" />
        </mxCell>
        <mxCell id="3my1TAARcMDjYpC7J4rx-194" value="" style="whiteSpace=wrap;html=1;aspect=fixed;fillColor=#fa6800;fontColor=#000000;strokeColor=#000000;" parent="1" vertex="1">
          <mxGeometry x="10" y="450" width="10" height="10" as="geometry" />
        </mxCell>
        <mxCell id="3my1TAARcMDjYpC7J4rx-195" value="" style="whiteSpace=wrap;html=1;aspect=fixed;fillColor=#fa6800;fontColor=#000000;strokeColor=#000000;" parent="1" vertex="1">
          <mxGeometry x="20" y="450" width="10" height="10" as="geometry" />
        </mxCell>
        <mxCell id="3my1TAARcMDjYpC7J4rx-196" value="" style="whiteSpace=wrap;html=1;aspect=fixed;strokeColor=#000000;fillColor=none;" parent="1" vertex="1">
          <mxGeometry x="30" y="450" width="10" height="10" as="geometry" />
        </mxCell>
        <mxCell id="3my1TAARcMDjYpC7J4rx-197" value="" style="whiteSpace=wrap;html=1;aspect=fixed;strokeColor=#000000;fillColor=none;" parent="1" vertex="1">
          <mxGeometry y="460" width="10" height="10" as="geometry" />
        </mxCell>
        <mxCell id="3my1TAARcMDjYpC7J4rx-198" value="" style="whiteSpace=wrap;html=1;aspect=fixed;fillColor=#fa6800;fontColor=#000000;strokeColor=#000000;" parent="1" vertex="1">
          <mxGeometry x="10" y="460" width="10" height="10" as="geometry" />
        </mxCell>
        <mxCell id="3my1TAARcMDjYpC7J4rx-199" value="" style="whiteSpace=wrap;html=1;aspect=fixed;fillColor=#fa6800;fontColor=#000000;strokeColor=#000000;" parent="1" vertex="1">
          <mxGeometry x="20" y="460" width="10" height="10" as="geometry" />
        </mxCell>
        <mxCell id="3my1TAARcMDjYpC7J4rx-200" value="" style="whiteSpace=wrap;html=1;aspect=fixed;fillColor=#fa6800;fontColor=#000000;strokeColor=#000000;" parent="1" vertex="1">
          <mxGeometry x="30" y="460" width="10" height="10" as="geometry" />
        </mxCell>
        <mxCell id="3my1TAARcMDjYpC7J4rx-201" value="" style="whiteSpace=wrap;html=1;aspect=fixed;strokeColor=#000000;fillColor=none;" parent="1" vertex="1">
          <mxGeometry y="470" width="10" height="10" as="geometry" />
        </mxCell>
        <mxCell id="3my1TAARcMDjYpC7J4rx-202" value="" style="whiteSpace=wrap;html=1;aspect=fixed;strokeColor=#000000;fillColor=none;" parent="1" vertex="1">
          <mxGeometry x="10" y="470" width="10" height="10" as="geometry" />
        </mxCell>
        <mxCell id="3my1TAARcMDjYpC7J4rx-203" value="" style="whiteSpace=wrap;html=1;aspect=fixed;fillColor=#fa6800;fontColor=#000000;strokeColor=#000000;" parent="1" vertex="1">
          <mxGeometry x="20" y="470" width="10" height="10" as="geometry" />
        </mxCell>
        <mxCell id="3my1TAARcMDjYpC7J4rx-204" value="" style="whiteSpace=wrap;html=1;aspect=fixed;fillColor=#fa6800;fontColor=#000000;strokeColor=#000000;" parent="1" vertex="1">
          <mxGeometry x="30" y="470" width="10" height="10" as="geometry" />
        </mxCell>
        <mxCell id="3my1TAARcMDjYpC7J4rx-205" value="" style="whiteSpace=wrap;html=1;aspect=fixed;strokeColor=#000000;fillColor=none;" parent="1" vertex="1">
          <mxGeometry x="-40" y="440" width="10" height="10" as="geometry" />
        </mxCell>
        <mxCell id="3my1TAARcMDjYpC7J4rx-206" value="" style="whiteSpace=wrap;html=1;aspect=fixed;strokeColor=#000000;fillColor=none;" parent="1" vertex="1">
          <mxGeometry x="-30" y="440" width="10" height="10" as="geometry" />
        </mxCell>
        <mxCell id="3my1TAARcMDjYpC7J4rx-207" value="" style="whiteSpace=wrap;html=1;aspect=fixed;strokeColor=#000000;fillColor=none;" parent="1" vertex="1">
          <mxGeometry x="-20" y="440" width="10" height="10" as="geometry" />
        </mxCell>
        <mxCell id="3my1TAARcMDjYpC7J4rx-208" value="" style="whiteSpace=wrap;html=1;aspect=fixed;fillColor=#fa6800;fontColor=#000000;strokeColor=#000000;" parent="1" vertex="1">
          <mxGeometry x="-10" y="440" width="10" height="10" as="geometry" />
        </mxCell>
        <mxCell id="3my1TAARcMDjYpC7J4rx-209" value="" style="whiteSpace=wrap;html=1;aspect=fixed;strokeColor=#000000;fillColor=none;" parent="1" vertex="1">
          <mxGeometry x="-40" y="450" width="10" height="10" as="geometry" />
        </mxCell>
        <mxCell id="3my1TAARcMDjYpC7J4rx-210" value="" style="whiteSpace=wrap;html=1;aspect=fixed;strokeColor=#000000;fillColor=none;" parent="1" vertex="1">
          <mxGeometry x="-30" y="450" width="10" height="10" as="geometry" />
        </mxCell>
        <mxCell id="3my1TAARcMDjYpC7J4rx-211" value="" style="whiteSpace=wrap;html=1;aspect=fixed;strokeColor=#000000;fillColor=none;" parent="1" vertex="1">
          <mxGeometry x="-20" y="450" width="10" height="10" as="geometry" />
        </mxCell>
        <mxCell id="3my1TAARcMDjYpC7J4rx-212" value="" style="whiteSpace=wrap;html=1;aspect=fixed;strokeColor=#000000;fillColor=none;" parent="1" vertex="1">
          <mxGeometry x="-10" y="450" width="10" height="10" as="geometry" />
        </mxCell>
        <mxCell id="3my1TAARcMDjYpC7J4rx-213" value="" style="whiteSpace=wrap;html=1;aspect=fixed;strokeColor=#000000;fillColor=none;" parent="1" vertex="1">
          <mxGeometry x="-40" y="460" width="10" height="10" as="geometry" />
        </mxCell>
        <mxCell id="3my1TAARcMDjYpC7J4rx-214" value="" style="whiteSpace=wrap;html=1;aspect=fixed;strokeColor=#000000;fillColor=none;" parent="1" vertex="1">
          <mxGeometry x="-30" y="460" width="10" height="10" as="geometry" />
        </mxCell>
        <mxCell id="3my1TAARcMDjYpC7J4rx-215" value="" style="whiteSpace=wrap;html=1;aspect=fixed;strokeColor=#000000;fillColor=none;" parent="1" vertex="1">
          <mxGeometry x="-20" y="460" width="10" height="10" as="geometry" />
        </mxCell>
        <mxCell id="3my1TAARcMDjYpC7J4rx-216" value="" style="whiteSpace=wrap;html=1;aspect=fixed;strokeColor=#000000;fillColor=none;" parent="1" vertex="1">
          <mxGeometry x="-10" y="460" width="10" height="10" as="geometry" />
        </mxCell>
        <mxCell id="3my1TAARcMDjYpC7J4rx-217" value="" style="whiteSpace=wrap;html=1;aspect=fixed;strokeColor=#000000;fillColor=none;" parent="1" vertex="1">
          <mxGeometry x="-40" y="470" width="10" height="10" as="geometry" />
        </mxCell>
        <mxCell id="3my1TAARcMDjYpC7J4rx-218" value="" style="whiteSpace=wrap;html=1;aspect=fixed;strokeColor=#000000;fillColor=none;" parent="1" vertex="1">
          <mxGeometry x="-30" y="470" width="10" height="10" as="geometry" />
        </mxCell>
        <mxCell id="3my1TAARcMDjYpC7J4rx-219" value="" style="whiteSpace=wrap;html=1;aspect=fixed;strokeColor=#000000;fillColor=none;" parent="1" vertex="1">
          <mxGeometry x="-20" y="470" width="10" height="10" as="geometry" />
        </mxCell>
        <mxCell id="3my1TAARcMDjYpC7J4rx-220" value="" style="whiteSpace=wrap;html=1;aspect=fixed;strokeColor=#000000;fillColor=none;" parent="1" vertex="1">
          <mxGeometry x="-10" y="470" width="10" height="10" as="geometry" />
        </mxCell>
        <mxCell id="3my1TAARcMDjYpC7J4rx-221" value="" style="whiteSpace=wrap;html=1;aspect=fixed;strokeColor=#000000;fillColor=none;" parent="1" vertex="1">
          <mxGeometry y="400" width="10" height="10" as="geometry" />
        </mxCell>
        <mxCell id="3my1TAARcMDjYpC7J4rx-222" value="" style="whiteSpace=wrap;html=1;aspect=fixed;strokeColor=#000000;fillColor=none;" parent="1" vertex="1">
          <mxGeometry x="10" y="400" width="10" height="10" as="geometry" />
        </mxCell>
        <mxCell id="3my1TAARcMDjYpC7J4rx-223" value="" style="whiteSpace=wrap;html=1;aspect=fixed;strokeColor=#000000;fillColor=none;" parent="1" vertex="1">
          <mxGeometry x="20" y="400" width="10" height="10" as="geometry" />
        </mxCell>
        <mxCell id="3my1TAARcMDjYpC7J4rx-224" value="" style="whiteSpace=wrap;html=1;aspect=fixed;strokeColor=#000000;fillColor=none;" parent="1" vertex="1">
          <mxGeometry x="30" y="400" width="10" height="10" as="geometry" />
        </mxCell>
        <mxCell id="3my1TAARcMDjYpC7J4rx-225" value="" style="whiteSpace=wrap;html=1;aspect=fixed;strokeColor=#000000;fillColor=none;" parent="1" vertex="1">
          <mxGeometry y="410" width="10" height="10" as="geometry" />
        </mxCell>
        <mxCell id="3my1TAARcMDjYpC7J4rx-226" value="" style="whiteSpace=wrap;html=1;aspect=fixed;strokeColor=#000000;fillColor=none;" parent="1" vertex="1">
          <mxGeometry x="10" y="410" width="10" height="10" as="geometry" />
        </mxCell>
        <mxCell id="3my1TAARcMDjYpC7J4rx-227" value="" style="whiteSpace=wrap;html=1;aspect=fixed;strokeColor=#000000;fillColor=none;" parent="1" vertex="1">
          <mxGeometry x="20" y="410" width="10" height="10" as="geometry" />
        </mxCell>
        <mxCell id="3my1TAARcMDjYpC7J4rx-228" value="" style="whiteSpace=wrap;html=1;aspect=fixed;strokeColor=#000000;fillColor=none;" parent="1" vertex="1">
          <mxGeometry x="30" y="410" width="10" height="10" as="geometry" />
        </mxCell>
        <mxCell id="3my1TAARcMDjYpC7J4rx-229" value="" style="whiteSpace=wrap;html=1;aspect=fixed;strokeColor=#000000;fillColor=none;" parent="1" vertex="1">
          <mxGeometry y="420" width="10" height="10" as="geometry" />
        </mxCell>
        <mxCell id="3my1TAARcMDjYpC7J4rx-230" value="" style="whiteSpace=wrap;html=1;aspect=fixed;strokeColor=#000000;fillColor=none;" parent="1" vertex="1">
          <mxGeometry x="10" y="420" width="10" height="10" as="geometry" />
        </mxCell>
        <mxCell id="3my1TAARcMDjYpC7J4rx-231" value="" style="whiteSpace=wrap;html=1;aspect=fixed;strokeColor=#000000;fillColor=none;" parent="1" vertex="1">
          <mxGeometry x="20" y="420" width="10" height="10" as="geometry" />
        </mxCell>
        <mxCell id="3my1TAARcMDjYpC7J4rx-232" value="" style="whiteSpace=wrap;html=1;aspect=fixed;strokeColor=#000000;fillColor=none;" parent="1" vertex="1">
          <mxGeometry x="30" y="420" width="10" height="10" as="geometry" />
        </mxCell>
        <mxCell id="3my1TAARcMDjYpC7J4rx-233" value="" style="whiteSpace=wrap;html=1;aspect=fixed;fillColor=#fa6800;fontColor=#000000;strokeColor=#000000;" parent="1" vertex="1">
          <mxGeometry y="430" width="10" height="10" as="geometry" />
        </mxCell>
        <mxCell id="3my1TAARcMDjYpC7J4rx-234" value="" style="whiteSpace=wrap;html=1;aspect=fixed;strokeColor=#000000;fillColor=none;" parent="1" vertex="1">
          <mxGeometry x="10" y="430" width="10" height="10" as="geometry" />
        </mxCell>
        <mxCell id="3my1TAARcMDjYpC7J4rx-235" value="" style="whiteSpace=wrap;html=1;aspect=fixed;strokeColor=#000000;fillColor=none;" parent="1" vertex="1">
          <mxGeometry x="20" y="430" width="10" height="10" as="geometry" />
        </mxCell>
        <mxCell id="3my1TAARcMDjYpC7J4rx-236" value="" style="whiteSpace=wrap;html=1;aspect=fixed;strokeColor=#000000;fillColor=none;" parent="1" vertex="1">
          <mxGeometry x="30" y="430" width="10" height="10" as="geometry" />
        </mxCell>
        <mxCell id="3my1TAARcMDjYpC7J4rx-237" value="" style="whiteSpace=wrap;html=1;aspect=fixed;fillColor=#fa6800;fontColor=#000000;strokeColor=#000000;" parent="1" vertex="1">
          <mxGeometry x="-40" y="400" width="10" height="10" as="geometry" />
        </mxCell>
        <mxCell id="3my1TAARcMDjYpC7J4rx-238" value="" style="whiteSpace=wrap;html=1;aspect=fixed;fillColor=#fa6800;fontColor=#000000;strokeColor=#000000;" parent="1" vertex="1">
          <mxGeometry x="-30" y="400" width="10" height="10" as="geometry" />
        </mxCell>
        <mxCell id="3my1TAARcMDjYpC7J4rx-239" value="" style="whiteSpace=wrap;html=1;aspect=fixed;strokeColor=#000000;fillColor=none;" parent="1" vertex="1">
          <mxGeometry x="-20" y="400" width="10" height="10" as="geometry" />
        </mxCell>
        <mxCell id="3my1TAARcMDjYpC7J4rx-240" value="" style="whiteSpace=wrap;html=1;aspect=fixed;strokeColor=#000000;fillColor=none;" parent="1" vertex="1">
          <mxGeometry x="-10" y="400" width="10" height="10" as="geometry" />
        </mxCell>
        <mxCell id="3my1TAARcMDjYpC7J4rx-241" value="" style="whiteSpace=wrap;html=1;aspect=fixed;fillColor=#fa6800;fontColor=#000000;strokeColor=#000000;" parent="1" vertex="1">
          <mxGeometry x="-40" y="410" width="10" height="10" as="geometry" />
        </mxCell>
        <mxCell id="3my1TAARcMDjYpC7J4rx-242" value="" style="whiteSpace=wrap;html=1;aspect=fixed;fillColor=#fa6800;fontColor=#000000;strokeColor=#000000;" parent="1" vertex="1">
          <mxGeometry x="-30" y="410" width="10" height="10" as="geometry" />
        </mxCell>
        <mxCell id="3my1TAARcMDjYpC7J4rx-243" value="" style="whiteSpace=wrap;html=1;aspect=fixed;fillColor=#fa6800;fontColor=#000000;strokeColor=#000000;" parent="1" vertex="1">
          <mxGeometry x="-20" y="410" width="10" height="10" as="geometry" />
        </mxCell>
        <mxCell id="3my1TAARcMDjYpC7J4rx-244" value="" style="whiteSpace=wrap;html=1;aspect=fixed;strokeColor=#000000;fillColor=none;" parent="1" vertex="1">
          <mxGeometry x="-10" y="410" width="10" height="10" as="geometry" />
        </mxCell>
        <mxCell id="3my1TAARcMDjYpC7J4rx-245" value="" style="whiteSpace=wrap;html=1;aspect=fixed;strokeColor=#000000;fillColor=none;" parent="1" vertex="1">
          <mxGeometry x="-40" y="420" width="10" height="10" as="geometry" />
        </mxCell>
        <mxCell id="3my1TAARcMDjYpC7J4rx-246" value="" style="whiteSpace=wrap;html=1;aspect=fixed;fillColor=#fa6800;fontColor=#000000;strokeColor=#000000;" parent="1" vertex="1">
          <mxGeometry x="-30" y="420" width="10" height="10" as="geometry" />
        </mxCell>
        <mxCell id="3my1TAARcMDjYpC7J4rx-247" value="" style="whiteSpace=wrap;html=1;aspect=fixed;fillColor=#fa6800;fontColor=#000000;strokeColor=#000000;" parent="1" vertex="1">
          <mxGeometry x="-20" y="420" width="10" height="10" as="geometry" />
        </mxCell>
        <mxCell id="3my1TAARcMDjYpC7J4rx-248" value="" style="whiteSpace=wrap;html=1;aspect=fixed;fillColor=#fa6800;fontColor=#000000;strokeColor=#000000;" parent="1" vertex="1">
          <mxGeometry x="-10" y="420" width="10" height="10" as="geometry" />
        </mxCell>
        <mxCell id="3my1TAARcMDjYpC7J4rx-249" value="" style="whiteSpace=wrap;html=1;aspect=fixed;strokeColor=#000000;fillColor=none;" parent="1" vertex="1">
          <mxGeometry x="-40" y="430" width="10" height="10" as="geometry" />
        </mxCell>
        <mxCell id="3my1TAARcMDjYpC7J4rx-250" value="" style="whiteSpace=wrap;html=1;aspect=fixed;strokeColor=#000000;fillColor=none;" parent="1" vertex="1">
          <mxGeometry x="-30" y="430" width="10" height="10" as="geometry" />
        </mxCell>
        <mxCell id="3my1TAARcMDjYpC7J4rx-251" value="" style="whiteSpace=wrap;html=1;aspect=fixed;fillColor=#fa6800;fontColor=#000000;strokeColor=#000000;" parent="1" vertex="1">
          <mxGeometry x="-20" y="430" width="10" height="10" as="geometry" />
        </mxCell>
        <mxCell id="3my1TAARcMDjYpC7J4rx-252" value="" style="whiteSpace=wrap;html=1;aspect=fixed;fillColor=#fa6800;fontColor=#000000;strokeColor=#000000;" parent="1" vertex="1">
          <mxGeometry x="-10" y="430" width="10" height="10" as="geometry" />
        </mxCell>
        <mxCell id="3my1TAARcMDjYpC7J4rx-253" value="" style="whiteSpace=wrap;html=1;aspect=fixed;fillColor=#fa6800;fillOpacity=62;" parent="1" vertex="1">
          <mxGeometry x="160" y="460" width="10" height="10" as="geometry" />
        </mxCell>
        <mxCell id="3my1TAARcMDjYpC7J4rx-254" value="" style="whiteSpace=wrap;html=1;aspect=fixed;fillColor=#fa6800;fillOpacity=6;" parent="1" vertex="1">
          <mxGeometry x="170" y="460" width="10" height="10" as="geometry" />
        </mxCell>
        <mxCell id="3my1TAARcMDjYpC7J4rx-255" value="" style="whiteSpace=wrap;html=1;aspect=fixed;fillColor=#fa6800;fillOpacity=6;" parent="1" vertex="1">
          <mxGeometry x="160" y="470" width="10" height="10" as="geometry" />
        </mxCell>
        <mxCell id="3my1TAARcMDjYpC7J4rx-256" value="" style="whiteSpace=wrap;html=1;aspect=fixed;fillColor=#fa6800;fillOpacity=62;" parent="1" vertex="1">
          <mxGeometry x="170" y="470" width="10" height="10" as="geometry" />
        </mxCell>
        <mxCell id="3my1TAARcMDjYpC7J4rx-257" value="" style="whiteSpace=wrap;html=1;aspect=fixed;fillColor=#fa6800;fillOpacity=34;" parent="1" vertex="1">
          <mxGeometry x="220" y="470" width="10" height="10" as="geometry" />
        </mxCell>
        <mxCell id="3my1TAARcMDjYpC7J4rx-258" value="Mip 0" style="text;html=1;align=center;verticalAlign=middle;resizable=0;points=[];autosize=1;strokeColor=none;fillColor=none;fontSize=16;" parent="1" vertex="1">
          <mxGeometry x="-30" y="110" width="60" height="30" as="geometry" />
        </mxCell>
        <mxCell id="3my1TAARcMDjYpC7J4rx-259" value="Mip 1" style="text;html=1;align=center;verticalAlign=middle;resizable=0;points=[];autosize=1;strokeColor=none;fillColor=none;fontSize=16;" parent="1" vertex="1">
          <mxGeometry x="70" y="110" width="60" height="30" as="geometry" />
        </mxCell>
        <mxCell id="3my1TAARcMDjYpC7J4rx-260" value="Mip 2" style="text;html=1;align=center;verticalAlign=middle;resizable=0;points=[];autosize=1;strokeColor=none;fillColor=none;fontSize=16;" parent="1" vertex="1">
          <mxGeometry x="140" y="110" width="60" height="30" as="geometry" />
        </mxCell>
        <mxCell id="3my1TAARcMDjYpC7J4rx-261" value="Mip 3" style="text;html=1;align=center;verticalAlign=middle;resizable=0;points=[];autosize=1;strokeColor=none;fillColor=none;fontSize=16;" parent="1" vertex="1">
          <mxGeometry x="195" y="110" width="60" height="30" as="geometry" />
        </mxCell>
        <mxCell id="3my1TAARcMDjYpC7J4rx-262" value="Element 0" style="text;html=1;align=center;verticalAlign=middle;resizable=0;points=[];autosize=1;strokeColor=none;fillColor=none;fontSize=16;" parent="1" vertex="1">
          <mxGeometry x="-160" y="185" width="100" height="30" as="geometry" />
        </mxCell>
        <mxCell id="3my1TAARcMDjYpC7J4rx-263" value="Element 1" style="text;html=1;align=center;verticalAlign=middle;resizable=0;points=[];autosize=1;strokeColor=none;fillColor=none;fontSize=16;" parent="1" vertex="1">
          <mxGeometry x="-160" y="305" width="100" height="30" as="geometry" />
        </mxCell>
        <mxCell id="3my1TAARcMDjYpC7J4rx-264" value="Element 2" style="text;html=1;align=center;verticalAlign=middle;resizable=0;points=[];autosize=1;strokeColor=none;fillColor=none;fontSize=16;" parent="1" vertex="1">
          <mxGeometry x="-160" y="425" width="100" height="30" as="geometry" />
        </mxCell>
        <mxCell id="xOsXXEFsDYN4aGqq1mgw-1" value="" style="whiteSpace=wrap;html=1;aspect=fixed;fillColor=#1ba1e2;fillOpacity=43;" parent="1" vertex="1">
          <mxGeometry x="220" y="350" width="10" height="10" as="geometry" />
        </mxCell>
        <mxCell id="oikLyA6Jbtr2Pq8aFF7h-1" value="" style="whiteSpace=wrap;html=1;aspect=fixed;strokeColor=#000000;fillColor=none;" parent="1" vertex="1">
          <mxGeometry x="-40" y="160" width="10" height="10" as="geometry" />
        </mxCell>
        <mxCell id="oikLyA6Jbtr2Pq8aFF7h-2" value="" style="whiteSpace=wrap;html=1;aspect=fixed;strokeColor=#000000;fillColor=none;" parent="1" vertex="1">
          <mxGeometry x="-30" y="160" width="10" height="10" as="geometry" />
        </mxCell>
        <mxCell id="oikLyA6Jbtr2Pq8aFF7h-3" value="" style="whiteSpace=wrap;html=1;aspect=fixed;strokeColor=#000000;fillColor=none;" parent="1" vertex="1">
          <mxGeometry x="-20" y="160" width="10" height="10" as="geometry" />
        </mxCell>
        <mxCell id="oikLyA6Jbtr2Pq8aFF7h-4" value="" style="whiteSpace=wrap;html=1;aspect=fixed;strokeColor=#000000;fillColor=none;" parent="1" vertex="1">
          <mxGeometry x="-10" y="160" width="10" height="10" as="geometry" />
        </mxCell>
        <mxCell id="oikLyA6Jbtr2Pq8aFF7h-5" value="" style="whiteSpace=wrap;html=1;aspect=fixed;strokeColor=#000000;fillColor=none;" parent="1" vertex="1">
          <mxGeometry y="160" width="10" height="10" as="geometry" />
        </mxCell>
        <mxCell id="oikLyA6Jbtr2Pq8aFF7h-6" value="" style="whiteSpace=wrap;html=1;aspect=fixed;strokeColor=#000000;fillColor=none;" parent="1" vertex="1">
          <mxGeometry x="10" y="160" width="10" height="10" as="geometry" />
        </mxCell>
        <mxCell id="oikLyA6Jbtr2Pq8aFF7h-7" value="" style="whiteSpace=wrap;html=1;aspect=fixed;strokeColor=#000000;fillColor=none;" parent="1" vertex="1">
          <mxGeometry x="20" y="160" width="10" height="10" as="geometry" />
        </mxCell>
        <mxCell id="oikLyA6Jbtr2Pq8aFF7h-8" value="" style="whiteSpace=wrap;html=1;aspect=fixed;strokeColor=#000000;fillColor=none;" parent="1" vertex="1">
          <mxGeometry x="30" y="160" width="10" height="10" as="geometry" />
        </mxCell>
        <mxCell id="oikLyA6Jbtr2Pq8aFF7h-9" value="" style="whiteSpace=wrap;html=1;aspect=fixed;strokeColor=#000000;fillColor=none;fillOpacity=0;" parent="1" vertex="1">
          <mxGeometry x="30" y="170" width="10" height="10" as="geometry" />
        </mxCell>
        <mxCell id="oikLyA6Jbtr2Pq8aFF7h-10" value="" style="whiteSpace=wrap;html=1;aspect=fixed;strokeColor=#000000;fillColor=none;fillOpacity=0;" parent="1" vertex="1">
          <mxGeometry x="20" y="170" width="10" height="10" as="geometry" />
        </mxCell>
        <mxCell id="oikLyA6Jbtr2Pq8aFF7h-11" value="" style="whiteSpace=wrap;html=1;aspect=fixed;strokeColor=#000000;fillColor=none;fillOpacity=0;" parent="1" vertex="1">
          <mxGeometry x="10" y="170" width="10" height="10" as="geometry" />
        </mxCell>
        <mxCell id="oikLyA6Jbtr2Pq8aFF7h-12" value="" style="whiteSpace=wrap;html=1;aspect=fixed;strokeColor=#000000;fillColor=none;fillOpacity=0;" parent="1" vertex="1">
          <mxGeometry x="20" y="180" width="10" height="10" as="geometry" />
        </mxCell>
        <mxCell id="oikLyA6Jbtr2Pq8aFF7h-13" value="" style="whiteSpace=wrap;html=1;aspect=fixed;strokeColor=#000000;fillColor=none;fillOpacity=0;" parent="1" vertex="1">
          <mxGeometry x="30" y="180" width="10" height="10" as="geometry" />
        </mxCell>
        <mxCell id="oikLyA6Jbtr2Pq8aFF7h-14" value="" style="whiteSpace=wrap;html=1;aspect=fixed;strokeColor=#000000;fillColor=none;fillOpacity=0;" parent="1" vertex="1">
          <mxGeometry x="30" y="190" width="10" height="10" as="geometry" />
        </mxCell>
        <mxCell id="oikLyA6Jbtr2Pq8aFF7h-15" value="" style="whiteSpace=wrap;html=1;aspect=fixed;strokeColor=#000000;fillColor=none;fillOpacity=0;" parent="1" vertex="1">
          <mxGeometry x="30" y="200" width="10" height="10" as="geometry" />
        </mxCell>
        <mxCell id="oikLyA6Jbtr2Pq8aFF7h-16" value="" style="whiteSpace=wrap;html=1;aspect=fixed;strokeColor=#000000;fillColor=none;fillOpacity=0;" parent="1" vertex="1">
          <mxGeometry x="30" y="210" width="10" height="10" as="geometry" />
        </mxCell>
        <mxCell id="oikLyA6Jbtr2Pq8aFF7h-17" value="" style="whiteSpace=wrap;html=1;aspect=fixed;strokeColor=#000000;fillColor=none;fillOpacity=0;" parent="1" vertex="1">
          <mxGeometry x="20" y="210" width="10" height="10" as="geometry" />
        </mxCell>
      </root>
    </mxGraphModel>
  </diagram>
</mxfile>
